<svg xmlns="http://www.w3.org/2000/svg" xmlns:xlink="http://www.w3.org/1999/xlink" version="1.1" preserveAspectRatio="xMidYMid meet" width="726" height="700"><rect id="backgroundrect" width="100%" height="100%" x="0" y="0" fill="none" stroke="none"/><defs><path d="M723.59 90.26C741.26 90.26 755.58 104.59 755.58 122.26C755.58 246.49 755.58 587.17 755.58 711.4C755.58 729.07 741.26 743.39 723.59 743.39C706.01 743.39 685.27 743.39 667.69 743.39C650.02 743.39 635.7 729.07 635.7 711.4C635.7 587.17 635.7 246.49 635.7 122.26C635.7 104.59 650.02 90.26 667.69 90.26C685.27 90.26 706.01 90.26 723.59 90.26Z" id="a7hDNWod6X"/><path d="M833.14 70.55C848.54 62.94 867.12 70.75 872.46 87.08C911.72 207.3 1019.41 537 1058.68 657.22C1064.48 675 1056.35 694.34 1039.59 702.62C1023.18 710.73 1003.16 720.63 986.75 728.74C971.34 736.35 952.77 728.54 947.43 712.21C908.17 591.99 800.48 262.29 761.21 142.07C755.41 124.3 763.54 104.96 780.3 96.67C796.71 88.56 816.73 78.66 833.14 70.55Z" id="d4PoaQSCI"/><path d="M592.66 89.9C610.3 89.66 624.78 103.81 624.94 121.45C626.07 245.67 629.18 586.34 630.31 710.55C630.47 728.25 616.3 742.75 598.61 742.99C581.03 743.23 560.29 743.52 542.72 743.76C525.07 744 510.59 729.85 510.43 712.21C509.3 587.99 506.19 247.33 505.06 123.11C504.9 105.41 519.07 90.92 536.76 90.67C554.34 90.43 575.08 90.14 592.66 89.9Z" id="d8QSChQZ1G"/><path d="M453.7 743.39L1180.09 743.39L1180.09 767.99L453.7 767.99L453.7 743.39Z" id="bfzyV5Lu6"/><path d="M599.97 89.82C613.77 89.82 624.95 101 624.95 114.79C624.95 127.83 624.95 141.98 624.95 155.02C624.95 168.81 613.77 179.99 599.97 179.99C580.99 179.99 549.02 179.99 530.04 179.99C516.24 179.99 505.06 168.81 505.06 155.02C505.06 141.98 505.06 127.83 505.06 114.79C505.06 101 516.24 89.82 530.04 89.82C549.02 89.82 580.99 89.82 599.97 89.82Z" id="fWYwbpvfC"/><path d="M730.61 89.82C744.4 89.82 755.58 101 755.58 114.79C755.58 127.83 755.58 141.98 755.58 155.02C755.58 168.81 744.4 179.99 730.61 179.99C711.62 179.99 679.65 179.99 660.67 179.99C646.88 179.99 635.7 168.81 635.7 155.02C635.7 141.98 635.7 127.83 635.7 114.79C635.7 101 646.88 89.82 660.67 89.82C679.65 89.82 711.62 89.82 730.61 89.82Z" id="aExbHuw2e"/><path d="M600.79 190.14C614.13 190.14 624.95 200.95 624.95 214.29C624.95 220.28 624.95 214.1 624.95 220.09C624.95 233.43 614.13 244.25 600.79 244.25C581.65 244.25 548.36 244.25 529.21 244.25C515.87 244.25 505.06 233.43 505.06 220.09C505.06 214.1 505.06 220.28 505.06 214.29C505.06 200.95 515.87 190.14 529.21 190.14C548.36 190.14 581.65 190.14 600.79 190.14Z" id="cyKeJmcuj"/><path d="M744.6 297.22C750.67 297.22 755.58 302.14 755.58 308.2C755.58 310.93 755.58 308.12 755.58 310.84C755.58 316.9 750.67 321.82 744.6 321.82C722.82 321.82 668.46 321.82 646.67 321.82C640.61 321.82 635.7 316.9 635.7 310.84C635.7 308.12 635.7 310.93 635.7 308.2C635.7 302.14 640.61 297.22 646.67 297.22C668.46 297.22 722.82 297.22 744.6 297.22Z" id="c1Xi7Rsd4Z"/><path d="M744.6 332.17C750.67 332.17 755.58 337.08 755.58 343.15C755.58 345.87 755.58 343.06 755.58 345.78C755.58 351.85 750.67 356.76 744.6 356.76C722.82 356.76 668.46 356.76 646.67 356.76C640.61 356.76 635.7 351.85 635.7 345.78C635.7 343.06 635.7 345.87 635.7 343.15C635.7 337.08 640.61 332.17 646.67 332.17C668.46 332.17 722.82 332.17 744.6 332.17Z" id="a1jPVlaqq4"/><path d="M744.6 617.36C750.67 617.36 755.58 622.27 755.58 628.33C755.58 631.06 755.58 628.25 755.58 630.97C755.58 637.03 750.67 641.95 744.6 641.95C722.82 641.95 668.46 641.95 646.67 641.95C640.61 641.95 635.7 637.03 635.7 630.97C635.7 628.25 635.7 631.06 635.7 628.33C635.7 622.27 640.61 617.36 646.67 617.36C668.46 617.36 722.82 617.36 744.6 617.36Z" id="d7SUFRxkTx"/><path d="M619.33 586.92C625.4 586.92 630.31 591.84 630.31 597.9C630.31 600.62 630.31 597.81 630.31 600.53C630.31 606.6 625.4 611.51 619.33 611.51C597.55 611.51 543.19 611.51 521.4 611.51C515.34 611.51 510.43 606.6 510.43 600.53C510.43 597.81 510.43 600.62 510.43 597.9C510.43 591.84 515.34 586.92 521.4 586.92C543.19 586.92 597.55 586.92 619.33 586.92Z" id="bz56NYmqN"/><path d="M843.16 71.8C855.35 65.66 870.14 71.77 874.45 84.72C878.37 96.5 881.95 107.28 885.87 119.06C890.56 133.16 884.2 148.57 870.93 155.26C853.36 164.1 823.77 179 806.2 187.84C794.02 193.98 779.22 187.87 774.92 174.92C771 163.14 767.41 152.36 763.49 140.58C758.8 126.48 765.16 111.07 778.44 104.38C796.01 95.54 825.59 80.64 843.16 71.8Z" id="aC3qxaMzl"/><path d="M921.68 270.28C926.48 267.46 932.67 269.6 934.69 274.8C935.64 277.25 934.66 274.72 935.61 277.17C937.83 282.88 935.59 289.36 930.31 292.47C910.51 304.12 860.27 333.69 840.47 345.34C835.67 348.17 829.48 346.02 827.46 340.83C826.51 338.37 827.5 340.91 826.54 338.45C824.32 332.74 826.57 326.26 831.85 323.15C851.64 311.5 901.88 281.93 921.68 270.28Z" id="armbfX1e7"/><path d="M1021.47 623.95C1033.28 617 1048.51 622.28 1053.48 635.06C1057.91 646.45 1061.73 656.27 1066.16 667.67C1071.62 681.72 1066.1 697.65 1053.11 705.3C1035.98 715.38 1007.14 732.35 990.02 742.43C978.21 749.38 962.98 744.1 958.01 731.32C953.58 719.93 949.76 710.1 945.33 698.71C939.87 684.66 945.39 668.73 958.38 661.08C975.51 651 1004.35 634.03 1021.47 623.95Z" id="c1Gud6W07S"/></defs><g class="currentLayer" style=""><title>Layer 1</title><g id="svg_1" class=""><g id="svg_2"><g id="svg_3"><g id="svg_4"><use xlink:href="#a7hDNWod6X" opacity="1" fill="#56965a" fill-opacity="1" id="svg_5" y="-67.61991882324219" x="-453.70001220703125"/></g><g id="svg_6"><use xlink:href="#d4PoaQSCI" opacity="1" fill="#f5dd90" fill-opacity="1" id="svg_7" y="-67.61991882324219" x="-453.70001220703125"/></g><g id="svg_8"><use xlink:href="#d8QSChQZ1G" opacity="1" fill="#748cdd" fill-opacity="1" id="svg_9" y="-67.61991882324219" x="-453.70001220703125"/></g><g id="svg_10"><use xlink:href="#bfzyV5Lu6" opacity="1" fill="#586db3" fill-opacity="1" id="svg_11" y="-67.61991882324219" x="-453.70001220703125"/></g><g id="svg_12"><use xlink:href="#fWYwbpvfC" opacity="1" fill="#566bb0" fill-opacity="1" id="svg_13" y="-67.61991882324219" x="-453.70001220703125"/></g><g id="svg_14"><use xlink:href="#aExbHuw2e" opacity="1" fill="#6156b0" fill-opacity="1" id="svg_15" y="-67.61991882324219" x="-453.70001220703125"/></g><g id="svg_16"><use xlink:href="#cyKeJmcuj" opacity="1" fill="#566bb0" fill-opacity="1" id="svg_17" y="-67.61991882324219" x="-453.70001220703125"/></g><g id="svg_18"><use xlink:href="#c1Xi7Rsd4Z" opacity="1" fill="#566bb0" fill-opacity="1" id="svg_19" y="-67.61991882324219" x="-453.70001220703125"/></g><g id="svg_20"><use xlink:href="#a1jPVlaqq4" opacity="1" fill="#566bb0" fill-opacity="1" id="svg_21" y="-67.61991882324219" x="-453.70001220703125"/></g><g id="svg_22"><use xlink:href="#d7SUFRxkTx" opacity="1" fill="#566bb0" fill-opacity="1" id="svg_23" y="-67.61991882324219" x="-453.70001220703125"/></g><g id="svg_24"><use xlink:href="#bz56NYmqN" opacity="1" fill="#566bb0" fill-opacity="1" id="svg_25" y="-67.61991882324219" x="-453.70001220703125"/></g><g id="svg_26"><use xlink:href="#aC3qxaMzl" opacity="1" fill="#b06b56" fill-opacity="1" id="svg_27" y="-67.61991882324219" x="-453.70001220703125"/></g><g id="svg_28"><use xlink:href="#armbfX1e7" opacity="1" fill="#566bb0" fill-opacity="1" id="svg_29" y="-67.61991882324219" x="-453.70001220703125"/></g><g id="svg_30"><use xlink:href="#c1Gud6W07S" opacity="1" fill="#b08156" fill-opacity="1" id="svg_31" y="-67.61991882324219" x="-453.70001220703125"/></g></g></g></g></g></svg>