<svg xmlns="http://www.w3.org/2000/svg" xmlns:xlink="http://www.w3.org/1999/xlink" version="1.1" preserveAspectRatio="xMidYMid meet" width="602" height="340"><rect id="backgroundrect" width="100%" height="100%" x="0" y="0" fill="none" stroke="none"/><defs><path d="M13.56 260.92L615.86 260.92L615.86 601.15L13.56 601.15L13.56 260.92Z" id="a2osQLKCyR"/><path d="M615.86 431.03C615.86 450.75 599.5 466.75 579.35 466.75C559.2 466.75 542.85 450.75 542.85 431.03C542.85 411.32 559.2 395.32 579.35 395.32C599.5 395.32 615.86 411.32 615.86 431.03Z" id="a4Y5AjrJ"/><path d="M613.34 510.69L610.69 507.99L608.11 505.17L605.63 502.23L603.25 499.18L600.95 496.02L598.76 492.75L596.67 489.38L594.68 485.9L592.8 482.33L591.03 478.67L589.37 474.92L587.83 471.08L586.41 467.17L585.11 463.17L583.93 459.1L582.88 454.95L581.96 450.74L581.18 446.46L580.53 442.13L580.02 437.73L579.65 433.28L579.43 428.79L579.35 424.24L579.43 419.7L579.65 415.2L580.02 410.75L580.53 406.36L581.18 402.02L581.96 397.74L582.88 393.53L583.93 389.39L585.11 385.32L586.41 381.32L587.83 377.4L589.37 373.56L591.03 369.81L592.8 366.15L594.68 362.58L596.67 359.11L598.76 355.73L600.95 352.47L603.25 349.3L605.63 346.25L608.11 343.31L610.69 340.49L613.34 337.79L615.86 335.43L615.86 513.05L613.34 510.69Z" id="dBBWcjTux"/><path d="M614.82 370.7L613.69 369.85L612.53 369L611.34 368.15L610.12 367.29L608.86 366.43L607.58 365.56L606.27 364.69L604.92 363.81L603.55 362.93L602.14 362.05L600.7 361.16L599.23 360.27L597.73 359.38L596.2 358.48L594.64 357.57L593.05 356.67L591.43 355.76L589.78 354.84L588.09 353.92L586.38 353L584.63 352.07L582.86 351.14L581.05 350.2L579.21 349.26L577.34 348.32L575.44 347.37L573.51 346.42L571.55 345.46L569.56 344.5L567.53 343.54L565.48 342.57L563.39 341.6L561.28 340.62L559.13 339.64L556.95 338.66L555.97 338.22L555 337.8L554.04 337.4L553.09 337L552.14 336.63L551.21 336.26L550.28 335.91L549.36 335.57L548.45 335.24L547.55 334.92L546.65 334.62L545.76 334.32L544.87 334.04L543.99 333.76L543.12 333.5L542.24 333.24L541.37 332.99L540.51 332.75L539.65 332.52L538.79 332.29L537.93 332.07L537.08 331.86L536.22 331.65L535.37 331.45L534.52 331.25L533.66 331.06L532.81 330.87L531.95 330.68L531.1 330.5L530.24 330.32L529.38 330.14L528.52 329.97L527.65 329.79L526.79 329.62L525.91 329.44L525.04 329.27L524.15 329.1L523.27 328.92L522.37 328.74L521.48 328.57L520.53 328.4L519.5 328.25L518.38 328.13L517.18 328.02L515.9 327.93L514.54 327.85L513.11 327.79L511.61 327.73L510.03 327.69L508.39 327.65L506.68 327.62L504.9 327.6L503.07 327.57L501.18 327.55L499.23 327.53L497.23 327.5L495.17 327.47L493.07 327.43L490.92 327.38L488.72 327.33L486.48 327.26L484.21 327.18L481.89 327.08L479.54 326.96L477.16 326.83L474.75 326.68L472.3 326.5L469.84 326.31L467.35 326.08L464.84 325.83L462.31 325.55L459.76 325.23L457.2 324.89L454.63 324.51L452.04 324.09L449.46 323.64L446.86 323.14L444.27 322.61L441.67 322.03L439.08 321.41L436.63 320.77L434.22 320.1L431.85 319.39L429.51 318.64L427.22 317.86L424.96 317.04L422.73 316.19L420.55 315.29L418.4 314.36L416.29 313.39L414.22 312.39L412.19 311.35L410.19 310.27L408.24 309.15L406.31 308L404.43 306.81L402.59 305.59L400.78 304.32L399.01 303.02L397.28 301.69L395.58 300.31L393.93 298.9L392.31 297.45L390.73 295.97L389.18 294.44L387.68 292.89L386.21 291.29L384.78 289.66L383.38 287.99L382.03 286.28L380.71 284.54L379.43 282.75L378.19 280.94L376.99 279.08L375.82 277.19L374.69 275.26L373.6 273.29L372.55 271.29L371.53 269.25L370.55 267.18L367.77 260.92L615.86 260.92L615.86 371.5L614.82 370.7Z" id="cSOvWlxn9"/><linearGradient id="gradientc2aPG2lC5l" x1="0.9838364713417808" y1="0.31117722303252254" x2="0.032609119502232206" y2="0.06520159459746624"><stop style="stop-color: #cd7dfa;stop-opacity: 0.76" offset="0%"/><stop style="stop-color: #ed73b7;stop-opacity: 1" offset="100%"/></linearGradient><path d="M531.15 501.81C531.15 507.56 526.38 512.24 520.5 512.24C514.62 512.24 509.85 507.56 509.85 501.81C509.85 496.05 514.62 491.38 520.5 491.38C526.38 491.38 531.15 496.05 531.15 501.81Z" id="bfMn9O39P"/><path d="M180.4 501L184.29 501.47L188.12 502.07L191.91 502.8L195.64 503.65L199.3 504.63L202.91 505.72L206.45 506.93L209.91 508.25L213.31 509.68L216.63 511.22L219.87 512.86L223.03 514.61L226.1 516.45L229.09 518.4L231.98 520.43L234.78 522.56L237.48 524.78L240.08 527.08L242.58 529.47L244.97 531.94L247.24 534.49L249.41 537.11L251.46 539.8L253.38 542.57L255.19 545.4L256.87 548.29L258.41 551.25L259.83 554.27L261.11 557.34L262.25 560.47L263.25 563.65L264.11 566.88L264.81 570.15L265.37 573.47L265.77 576.83L266.01 580.22L266.09 583.65L266.01 587.09L265.77 590.48L265.37 593.84L264.81 597.16L264.11 600.43L263.92 601.15L73 601.15L72.81 600.43L72.1 597.16L71.55 593.84L71.15 590.48L70.9 587.09L70.82 583.65L70.9 580.22L71.15 576.83L71.55 573.47L72.1 570.15L72.81 566.88L73.66 563.65L74.66 560.47L75.8 557.34L77.08 554.27L78.5 551.25L80.05 548.29L81.73 545.4L83.53 542.57L85.46 539.8L87.51 537.11L89.67 534.49L91.95 531.94L94.34 529.47L96.83 527.08L99.43 524.78L102.13 522.56L104.93 520.43L107.83 518.4L110.81 516.45L113.88 514.61L117.04 512.86L120.28 511.22L123.6 509.68L127 508.25L130.47 506.93L134.01 505.72L137.61 504.63L141.28 503.65L145.01 502.8L148.79 502.07L152.63 501.47L156.52 501L160.45 500.65L164.44 500.45L168.46 500.38L172.48 500.45L176.46 500.65L176.46 500.65L180.4 501Z" id="bgvFqeglt"/></defs><g class="currentLayer" style=""><title>Layer 1</title><g id="svg_1" class=""><g id="svg_2"><g id="svg_3"><use xlink:href="#a2osQLKCyR" opacity="1" fill="#f2ebe5" fill-opacity="0" id="svg_4" y="-260.9200134277344" x="-13.5600004196167"/></g><g id="svg_5"><use xlink:href="#a4Y5AjrJ" opacity="1" fill="#f6af49" fill-opacity="0.76" id="svg_6" y="-260.9200134277344" x="-13.5600004196167"/></g><g id="svg_7"><use xlink:href="#dBBWcjTux" opacity="1" fill="#33d2f9" fill-opacity="0.79" id="svg_8" y="-260.9200134277344" x="-13.5600004196167"/></g><g id="svg_9"><use xlink:href="#cSOvWlxn9" opacity="1" fill="url(#gradientc2aPG2lC5l)" id="svg_10" y="-260.9200134277344" x="-13.5600004196167"/></g><g id="svg_11"><use xlink:href="#bfMn9O39P" opacity="1" fill="#33d2f9" fill-opacity="0.36" id="svg_12" y="-260.9200134277344" x="-13.5600004196167"/></g><g id="svg_13"><use xlink:href="#bgvFqeglt" opacity="1" fill="#fad5a0" fill-opacity="1" id="svg_14" y="-260.9200134277344" x="-13.5600004196167"/></g></g></g></g></svg>