<?xml version="1.0" encoding="UTF-8" standalone="no"?>
<!DOCTYPE svg PUBLIC "-//W3C//DTD SVG 1.1//EN" "http://www.w3.org/Graphics/SVG/1.1/DTD/svg11.dtd">
<svg version="1.1" xmlns="http://www.w3.org/2000/svg" xmlns:xlink="http://www.w3.org/1999/xlink" preserveAspectRatio="xMidYMid meet" viewBox="0 0 1200 800" width="1200" height="800"><defs><path d="M137.52 648.96L137.52 261.58L990.64 261.58L990.64 648.96L137.52 648.96ZM137.52 261.58L990.64 116.18L990.64 261.58L137.52 261.58Z" id="b4ZkZXuF4"></path></defs><g><g><g><g><filter id="shadow10025300" x="128.52" y="107.18" width="872.12" height="551.78" filterUnits="userSpaceOnUse" primitiveUnits="userSpaceOnUse"><feFlood></feFlood><feComposite in2="SourceAlpha" operator="in"></feComposite><feGaussianBlur stdDeviation="1"></feGaussianBlur><feOffset dx="1" dy="1" result="afterOffset"></feOffset><feFlood flood-color="#000000" flood-opacity="0.5"></feFlood><feComposite in2="afterOffset" operator="in"></feComposite><feMorphology operator="dilate" radius="1"></feMorphology><feComposite in2="SourceAlpha" operator="out"></feComposite></filter><path d="M137.52 648.96L137.52 261.58L990.64 261.58L990.64 648.96L137.52 648.96ZM137.52 261.58L990.64 116.18L990.64 261.58L137.52 261.58Z" id="b5vV3Ypwa" fill="white" fill-opacity="1" filter="url(#shadow10025300)"></path></g><use xlink:href="#b4ZkZXuF4" opacity="1" fill="#f8be00" fill-opacity="1"></use><g><filter id="shadow2257299" x="128.52" y="107.18" width="872.12" height="551.78" filterUnits="userSpaceOnUse" primitiveUnits="userSpaceOnUse"><feFlood></feFlood><feComposite in2="SourceAlpha" operator="out"></feComposite><feGaussianBlur stdDeviation="1"></feGaussianBlur><feOffset dx="1" dy="1" result="afterOffset"></feOffset><feFlood flood-color="#ffffff" flood-opacity="0.8"></feFlood><feComposite in2="afterOffset" operator="in"></feComposite><feMorphology operator="dilate" radius="1"></feMorphology><feComposite in2="SourceAlpha" operator="in"></feComposite></filter><path d="M137.52 648.96L137.52 261.58L990.64 261.58L990.64 648.96L137.52 648.96ZM137.52 261.58L990.64 116.18L990.64 261.58L137.52 261.58Z" id="e3droJLhDK" fill="white" fill-opacity="1" filter="url(#shadow2257299)"></path></g></g></g></g></svg>