<svg xmlns="http://www.w3.org/2000/svg" xmlns:xlink="http://www.w3.org/1999/xlink" version="1.1" preserveAspectRatio="xMidYMid meet" width="659" height="572"><rect id="backgroundrect" width="100%" height="100%" x="0" y="0" fill="none" stroke="none"/><defs><path d="M899.91 90.31L898.85 97.2L1031.17 206.1L818.75 464.23L816.07 468.15L811.32 474.62L806.29 480.95L801.05 487.1L795.63 493L792.31 496.35L789.07 500.29L788.65 499.96L784.31 504.04L778.43 509.19L772.41 514.08L766.26 518.72L759.99 523.1L753.61 527.22L747.13 531.09L740.55 534.69L733.88 538.04L727.14 541.12L720.32 543.94L713.44 546.49L706.51 548.78L699.53 550.8L692.52 552.55L685.48 554.03L678.42 555.24L671.34 556.18L664.27 556.84L657.19 557.23L650.14 557.34L643.1 557.18L636.09 556.73L629.12 556.01L622.2 555L615.34 553.71L608.54 552.14L601.81 550.28L599.74 549.62L529.79 549.62L529.45 549.61L529.11 549.59L528.77 549.56L528.44 549.51L528.11 549.45L527.79 549.38L527.47 549.29L527.16 549.19L526.85 549.08L526.55 548.96L526.25 548.83L525.96 548.69L525.68 548.53L525.4 548.37L525.13 548.19L524.87 548.01L524.62 547.82L524.37 547.61L524.13 547.4L523.9 547.18L523.68 546.95L523.47 546.71L523.26 546.46L523.07 546.21L522.88 545.94L522.71 545.67L522.54 545.4L522.39 545.11L522.25 544.82L522.12 544.53L521.99 544.23L521.89 543.92L521.79 543.61L521.7 543.29L521.63 542.96L521.57 542.64L521.52 542.3L521.49 541.97L521.47 541.63L521.46 541.28L521.47 540.94L521.49 540.6L521.52 540.26L521.57 539.93L521.63 539.61L521.7 539.28L521.79 538.96L521.89 538.65L521.99 538.34L522.12 538.04L522.25 537.74L522.39 537.45L522.54 537.17L522.71 536.89L522.88 536.63L523.07 536.36L523.26 536.11L523.47 535.86L523.68 535.62L523.9 535.39L524.13 535.17L524.37 534.96L524.62 534.75L524.87 534.56L525.13 534.37L525.4 534.2L525.68 534.04L525.96 533.88L526.25 533.74L526.55 533.61L526.85 533.49L527.16 533.38L527.47 533.28L527.79 533.19L528.11 533.12L528.44 533.06L528.77 533.01L529.11 532.98L529.45 532.96L529.79 532.95L563.22 532.95L557.42 529.19L551.57 525L545.87 520.52L540.37 515.78L535.14 510.85L530.17 505.72L525.46 500.4L521.02 494.91L516.84 489.25L512.92 483.43L509.28 477.46L505.89 471.35L502.77 465.1L499.92 458.73L497.34 452.24L495.02 445.64L493.8 441.67L469.12 441.67L468.77 441.66L468.43 441.64L468.1 441.6L467.76 441.56L467.44 441.5L467.11 441.42L466.79 441.34L466.48 441.24L466.17 441.13L465.87 441.01L465.58 440.88L465.29 440.74L465 440.58L464.73 440.42L464.46 440.24L464.19 440.06L463.94 439.86L463.69 439.66L463.45 439.45L463.22 439.23L463 439L462.79 438.76L462.58 438.51L462.39 438.25L462.21 437.99L462.03 437.72L461.87 437.45L461.71 437.16L461.57 436.87L461.44 436.58L461.32 436.28L461.21 435.97L461.11 435.65L461.02 435.34L460.95 435.01L460.89 434.69L460.84 434.35L460.81 434.02L460.79 433.68L460.78 433.33L460.79 432.99L460.81 432.65L460.84 432.31L460.89 431.98L460.95 431.65L461.02 431.33L461.11 431.01L461.21 430.7L461.32 430.39L461.44 430.09L461.57 429.79L461.71 429.5L461.87 429.22L462.03 428.94L462.21 428.67L462.39 428.41L462.58 428.16L462.79 427.91L463 427.67L463.22 427.44L463.45 427.22L463.69 427.01L463.94 426.8L464.19 426.61L464.46 426.42L464.73 426.25L465 426.08L465.29 425.93L465.58 425.79L465.87 425.65L466.17 425.53L466.48 425.42L466.79 425.33L467.11 425.24L467.44 425.17L467.76 425.11L468.1 425.06L468.43 425.03L468.77 425.01L469.12 425L489.62 425L488.42 418.33L487.44 411.32L486.73 404.25L486.29 397.12L486.12 389.96L486.19 384.77L558.92 384.77L559.1 384.77L559.29 384.75L559.47 384.74L559.65 384.71L559.83 384.68L560.01 384.64L560.18 384.59L560.35 384.54L560.52 384.48L560.68 384.41L560.85 384.34L561 384.26L561.16 384.18L561.31 384.09L561.46 383.99L561.6 383.89L561.74 383.79L561.87 383.68L562 383.56L562.13 383.44L562.25 383.31L562.37 383.18L562.48 383.05L562.58 382.91L562.68 382.77L562.78 382.62L562.87 382.47L562.95 382.31L563.03 382.15L563.1 381.99L563.17 381.83L563.23 381.66L563.28 381.49L563.33 381.32L563.37 381.14L563.4 380.96L563.43 380.78L563.45 380.6L563.46 380.41L563.46 380.22L563.46 380.04L563.45 379.85L563.43 379.67L563.4 379.49L563.37 379.31L563.33 379.13L563.28 378.96L563.23 378.79L563.17 378.62L563.1 378.45L563.03 378.29L562.95 378.13L562.87 377.98L562.78 377.83L562.68 377.68L562.58 377.54L562.48 377.4L562.37 377.27L562.25 377.14L562.13 377.01L562 376.89L561.87 376.77L561.74 376.66L561.6 376.56L561.46 376.45L561.31 376.36L561.16 376.27L561 376.19L560.85 376.11L560.68 376.04L560.52 375.97L560.35 375.91L560.18 375.86L560.01 375.81L559.83 375.77L559.65 375.74L559.47 375.71L559.29 375.69L559.1 375.68L558.92 375.68L486.58 375.68L486.58 375.55L486.73 373.86L380.67 373.86L380.33 373.85L379.99 373.83L379.65 373.8L379.32 373.75L378.99 373.69L378.67 373.62L378.35 373.53L378.03 373.44L377.73 373.33L377.42 373.21L377.13 373.07L376.84 372.93L376.56 372.78L376.28 372.61L376.01 372.44L375.75 372.25L375.49 372.06L375.25 371.85L375.01 371.64L374.78 371.42L374.55 371.19L374.34 370.95L374.14 370.7L373.94 370.45L373.76 370.19L373.58 369.92L373.42 369.64L373.27 369.36L373.12 369.07L372.99 368.77L372.87 368.47L372.76 368.16L372.66 367.85L372.58 367.53L372.5 367.21L372.44 366.88L372.4 366.55L372.36 366.21L372.34 365.87L372.34 365.53L372.34 365.18L372.36 364.84L372.4 364.51L372.44 364.18L372.5 363.85L372.58 363.52L372.66 363.21L372.76 362.89L372.87 362.59L372.99 362.28L373.12 361.99L373.27 361.7L373.42 361.41L373.58 361.14L373.76 360.87L373.94 360.61L374.14 360.35L374.34 360.1L374.55 359.86L374.78 359.63L375.01 359.41L375.25 359.2L375.49 359L375.75 358.8L376.01 358.62L376.28 358.44L376.56 358.28L376.84 358.12L377.13 357.98L377.42 357.85L377.73 357.73L378.03 357.62L378.35 357.52L378.67 357.44L378.99 357.36L379.32 357.3L379.65 357.26L379.99 357.22L380.33 357.2L380.67 357.19L488.77 357.19L489.32 353.83L490.77 346.6L492.5 339.39L494.5 332.2L496.77 325.05L499.31 317.94L502.13 310.89L505.23 303.89L508.59 296.97L512.24 290.12L516.15 283.36L520.35 276.69L524.82 270.13L529.56 263.68L534.58 257.34L539.83 251.19L545.26 245.28L550.87 239.6L556.67 234.13L559.95 231.24L674.43 92.13L736.92 92.13L737.27 92.13L737.61 92.11L737.94 92.07L738.27 92.02L738.6 91.96L738.93 91.89L739.24 91.81L739.56 91.71L739.86 91.6L740.17 91.48L740.46 91.35L740.75 91.2L741.04 91.05L741.31 90.88L741.58 90.71L741.84 90.53L742.1 90.33L742.35 90.13L742.59 89.91L742.82 89.69L743.04 89.46L743.25 89.22L743.45 88.98L743.65 88.72L743.83 88.46L744.01 88.19L744.17 87.91L744.33 87.63L744.47 87.34L744.6 87.04L744.72 86.74L744.83 86.43L744.93 86.12L745.01 85.8L745.09 85.48L745.15 85.15L745.19 84.82L745.23 84.48L745.25 84.14L745.26 83.8L745.25 83.46L745.23 83.12L745.19 82.78L745.15 82.45L745.09 82.12L745.01 81.8L744.93 81.48L744.83 81.17L744.72 80.86L744.6 80.56L744.47 80.26L744.33 79.97L744.17 79.69L744.01 79.41L743.83 79.14L743.65 78.88L743.45 78.62L743.25 78.38L743.04 78.14L742.82 77.91L742.59 77.69L742.35 77.47L742.1 77.27L741.84 77.07L741.58 76.89L741.31 76.71L741.04 76.55L740.75 76.4L740.46 76.25L740.17 76.12L739.86 76L739.56 75.89L739.24 75.79L738.93 75.71L738.6 75.64L738.27 75.58L737.94 75.53L737.61 75.49L737.27 75.47L736.92 75.47L700.44 75.47L700.42 75.48L700.11 75.6L699.81 75.71L699.49 75.81L699.18 75.89L698.85 75.96L698.52 76.02L698.19 76.07L697.86 76.11L697.52 76.13L697.17 76.13L559.15 76.13L558.81 76.13L558.47 76.11L558.13 76.07L557.8 76.02L557.47 75.96L557.15 75.89L556.83 75.81L556.52 75.71L556.21 75.6L555.91 75.48L555.61 75.35L555.32 75.2L555.04 75.05L554.76 74.88L554.49 74.71L554.23 74.53L553.97 74.33L553.73 74.13L553.49 73.91L553.26 73.69L553.04 73.46L552.82 73.22L552.62 72.98L552.42 72.72L552.24 72.46L552.07 72.19L551.9 71.91L551.75 71.63L551.6 71.34L551.47 71.04L551.35 70.74L551.24 70.43L551.14 70.12L551.06 69.8L550.99 69.48L550.93 69.15L550.88 68.82L550.84 68.48L550.82 68.14L550.82 67.8L550.82 67.46L550.84 67.12L550.88 66.78L550.93 66.45L550.99 66.12L551.06 65.8L551.14 65.48L551.24 65.17L551.35 64.86L551.47 64.56L551.6 64.26L551.75 63.97L551.9 63.69L552.07 63.41L552.24 63.14L552.42 62.88L552.62 62.62L552.82 62.38L553.04 62.14L553.26 61.91L553.49 61.69L553.73 61.47L553.97 61.27L554.23 61.07L554.49 60.89L554.76 60.71L555.04 60.55L555.32 60.4L555.61 60.25L555.91 60.12L556.21 60L556.52 59.89L556.83 59.79L557.15 59.71L557.47 59.64L557.8 59.58L558.13 59.53L558.47 59.49L558.81 59.47L559.15 59.47L697.17 59.47L697.52 59.47L697.86 59.49L698.19 59.53L698.52 59.58L698.85 59.64L699.18 59.71L699.49 59.79L699.81 59.89L700.11 60L700.42 60.12L700.68 60.24L762.56 -14.96L893.35 92.68L899.91 90.31Z" id="eQCznaVPx"/><linearGradient id="gradiente4fegGuo1P" x1="0.27527585927054643" y1="0.8638650192783839" x2="0.8849170652731374" y2="0.03985671500375831"><stop style="stop-color: #fa709a;stop-opacity: 1" offset="0%"/><stop style="stop-color: #fcbd5c;stop-opacity: 0.38" offset="68.38741213387334%"/><stop style="stop-color: #fee140;stop-opacity: 0.1" offset="100%"/></linearGradient></defs><g class="currentLayer" style=""><title>Layer 1</title><g id="svg_1" class=""><g id="svg_2"><g id="svg_3"><use xlink:href="#eQCznaVPx" opacity="1" fill="url(#gradiente4fegGuo1P)" id="svg_4" y="14.960000038146973" x="-372.3399963378906"/></g></g></g></g></svg>